<?xml version="1.0" encoding="utf-8"?>
<svg viewBox="200 100 400 400.0529" width="400px" height="400.053px" xmlns="http://www.w3.org/2000/svg">
  <rect x="200" y="100.026" width="400" height="400" style="fill: none;"/>
  <g transform="matrix(1.1809860467910767, 0, 0, -1.1809860467910767, 361.3131675037215, 190.4924448522104)">
    <path d="M 0 0 C 0.866 8.863 2.253 17.993 7.644 25.697 C 10.423 24.537 14.808 20.765 14.808 20.765 C 14.808 20.765 10.489 14.428 9.37 -1.233 L 9.37 -27.809 L 19.126 -27.809 L 19.126 -0.653 C 19.833 3.665 20.525 8.803 22.565 11.962 C 26.59 6.524 27.423 0.14 28.169 -4.518 L 28.169 -27.809 L 37.606 -27.809 L 37.599 -4.518 C 38.339 0.14 39.185 6.524 43.19 11.962 C 45.25 8.803 45.923 3.665 46.636 -0.653 L 46.636 -27.809 L 56.385 -27.809 L 56.385 -1.233 C 55.266 14.428 50.967 20.765 50.967 20.765 C 50.967 20.765 55.339 24.537 58.111 25.697 C 63.509 17.993 64.895 8.863 65.762 0 L 65.762 -27.809 L 75.525 -27.809 L 75.525 -1.233 C 75.032 6.851 75.298 11.609 67.927 28.962 C 70.407 30.082 73.885 30.042 75.525 30.042 C 89.539 30.042 113.45 18.5 113.597 -1.346 L 113.597 -27.809 L 123.353 -27.809 L 123.353 -1.826 C 123.353 23.831 94.824 39.725 75.525 39.725 C 73.885 39.725 66.848 39.058 63.096 37.772 C 61.284 40.251 58.978 43.324 57.052 45.643 C 66.335 48.555 68.107 48.768 75.851 48.768 C 99.196 48.768 132.596 29.476 132.723 -0.706 L 132.723 -27.809 L 142.486 -27.809 L 142.486 -1.193 C 142.486 34.4 104.48 58.451 75.525 58.451 C 61.343 58.451 50.401 53.207 50.114 53.473 C 49.694 53.893 45.416 57.718 42.864 60.024 C 53.233 64.342 64.482 67.488 75.525 67.488 C 108.839 67.488 151.722 40.705 151.849 -0.706 L 151.849 -25.47 C 155.641 -18.846 161.612 -6.751 161.612 -5.138 C 161.612 42.231 120.274 77.171 76.318 76.618 C 59.217 76.404 48.448 73.166 33.354 66.215 L 32.888 66.015 L 32.401 66.215 C 17.313 73.166 6.537 76.404 -10.563 76.618 C -54.506 77.171 -95.857 42.231 -95.857 -5.138 C -95.857 -6.751 -89.886 -18.846 -86.087 -25.47 L -86.087 -0.706 C -85.961 40.705 -43.077 67.488 -9.77 67.488 C 1.286 67.488 12.529 64.342 22.891 60.024 C 20.346 57.718 16.067 53.893 15.641 53.473 C 15.374 53.207 4.418 58.451 -9.77 58.451 C -38.705 58.451 -76.717 34.4 -76.717 -1.193 L -76.717 -27.809 L -66.961 -27.809 L -66.961 -0.706 C -66.821 29.476 -33.427 48.768 -10.096 48.768 C -2.339 48.768 -0.58 48.555 8.703 45.643 C 6.784 43.324 4.485 40.251 2.672 37.772 C -1.093 39.058 -8.11 39.725 -9.77 39.725 C -29.062 39.725 -57.591 23.831 -57.591 -1.826 L -57.591 -27.809 L -47.822 -27.809 L -47.822 -1.346 C -47.695 18.5 -23.784 30.042 -9.77 30.042 C -8.11 30.042 -4.632 30.082 -2.166 28.962 C -9.53 11.609 -9.276 6.851 -9.756 -1.233 L -9.756 -27.809 L 0 -27.809 Z M 33.354 12.315 L 32.888 11.269 L 32.401 12.315 C 31.301 15.121 26.856 21.459 26.856 21.459 C 26.856 21.459 27.716 23.884 32.401 28.869 L 32.888 29.302 L 33.354 28.869 C 38.039 23.884 38.919 21.459 38.919 21.459 C 38.919 21.459 34.46 15.121 33.354 12.315 M 47.975 40.305 C 47.975 40.305 52.153 35.646 53.5 32.814 C 50.014 30.662 48.895 29.702 46.109 27.863 C 43.264 32.448 41.764 33.667 40.251 35.167 C 42.964 37.746 47.975 40.305 47.975 40.305 M 32.401 53.4 L 32.888 53.626 L 33.354 53.4 C 34.914 52.753 39.145 49.295 40.931 47.509 C 36.4 44.75 33.807 42.371 33.354 41.951 L 32.888 41.538 L 32.401 41.951 C 31.955 42.371 29.362 44.75 24.831 47.509 C 26.616 49.295 30.848 52.753 32.401 53.4 M 17.78 40.305 C 17.78 40.305 22.805 37.746 25.51 35.167 C 24.011 33.667 22.511 32.448 19.646 27.863 C 16.874 29.702 15.741 30.662 12.275 32.814 C 13.601 35.646 17.78 40.305 17.78 40.305" style="fill: rgb(255, 75, 59); fill-opacity: 1;"/>
  </g>
  <g transform="matrix(1.1809860467910767, 0, 0, -1.1809860467910767, 349.7939415532985, 398.69716978750625)">
    <path d="M 0 0 C 2.986 -6.511 6.284 -12.982 9.756 -19.606 L 9.756 5.685 L 0 5.685 Z" style="fill: rgb(32, 147, 210); fill-opacity: 1;"/>
    <path d="M 19.126 -37.445 C 22.118 -43.956 26.077 -51.046 28.882 -57.704 L 28.882 5.685 L 19.126 5.685 L 19.126 -37.445 Z" style="fill: rgb(32, 147, 210); fill-opacity: 1;"/>
    <path d="M 37.87 -75.4 C 38.75 -77.566 42.202 -84.577 42.642 -85.823 C 43.075 -84.577 46.52 -77.566 47.4 -75.4 L 47.38 5.689 L 37.89 5.689 L 37.87 -75.4 Z" style="fill: rgb(32, 147, 210); fill-opacity: 1;"/>
    <path d="M 56.387 -57.704 C 59.206 -51.047 63.158 -43.956 66.143 -37.445 L 66.143 5.685 L 56.387 5.685 L 56.387 -57.704 Z" style="fill: rgb(32, 147, 210); fill-opacity: 1;"/>
    <path d="M 75.513 -19.607 C 78.978 -12.983 82.297 -6.512 85.283 -0.001 L 85.283 5.69 L 75.513 5.69 L 75.513 -19.607 Z" style="fill: rgb(32, 147, 210); fill-opacity: 1;"/>
  </g>
  <g transform="translate(400, 320)">
    <text x="0" y="0" text-anchor="middle" font-family="Arial Black, Arial, sans-serif" font-weight="900" font-size="95" fill="rgb(21, 23, 24)">KCTE</text>
  </g>
</svg>